<svg width="34" height="34" viewBox="0 0 34 34" fill="none" xmlns="http://www.w3.org/2000/svg">
<g clip-path="url(#clip0_264_58)">
<path d="M4.2666 13.3334H31.9634V20.6667H4.2666V13.3334Z" fill="url(#paint0_linear_264_58)"/>
<path d="M4.2666 13.3334H31.9634V20.6667H4.2666V13.3334Z" fill="url(#paint1_linear_264_58)"/>
<path d="M31.9633 13.3334V20.6667H29.2953V18.5872C29.2953 17.3244 28.2716 16.3007 27.0088 16.3007H4.2666V13.3334H31.9633Z" fill="url(#paint2_linear_264_58)"/>
<path d="M5.43379 16.9538C5.40839 18.2916 6.52905 19.3867 7.86712 19.3867H31.7067C32.6124 19.3867 33.3467 20.121 33.3467 21.0267C33.3467 21.9324 32.6124 22.6667 31.7067 22.6667H6.31999C3.18999 22.6667 0.65332 20.1294 0.65332 17C0.65332 13.8707 3.18999 11.3334 6.31999 11.3334H31.7067C32.6124 11.3334 33.3467 12.0676 33.3467 12.9734C33.3467 13.8791 32.6124 14.6134 31.7067 14.6134H7.81932C6.51672 14.6134 5.45839 15.6572 5.43379 16.9538Z" fill="url(#paint3_linear_264_58)"/>
<path d="M31.7066 19.3867H29.0386C29.9443 19.3867 30.6786 20.121 30.6786 21.0267C30.6786 21.9325 29.9443 22.6667 29.0386 22.6667H31.7066C32.6123 22.6667 33.3466 21.9325 33.3466 21.0267C33.3466 20.121 32.6123 19.3867 31.7066 19.3867Z" fill="url(#paint4_linear_264_58)"/>
<path d="M5.43368 16.9539C5.45828 15.6572 6.51668 14.6134 7.81922 14.6134H5.15122C3.84862 14.6134 2.79028 15.6572 2.76568 16.9539C2.74028 18.2917 3.86095 19.3867 5.19902 19.3867H7.86702C6.52895 19.3867 5.40828 18.2917 5.43368 16.9539Z" fill="url(#paint5_linear_264_58)"/>
<path d="M31.7066 11.3334H29.0386C29.9443 11.3334 30.6786 12.0676 30.6786 12.9734C30.6786 13.8791 29.9443 14.6134 29.0386 14.6134H31.7066C32.6123 14.6134 33.3466 13.8791 33.3466 12.9734C33.3466 12.0676 32.6123 11.3334 31.7066 11.3334Z" fill="url(#paint6_linear_264_58)"/>
<path d="M4.2666 2H31.9634V9.33333H4.2666V2Z" fill="url(#paint7_linear_264_58)"/>
<path d="M4.2666 2H31.9634V9.33333H4.2666V2Z" fill="url(#paint8_linear_264_58)"/>
<path d="M31.9633 2V9.33333H29.2953V7.2538C29.2953 5.991 28.2716 4.96733 27.0088 4.96733H4.2666V2H31.9633Z" fill="url(#paint9_linear_264_58)"/>
<path d="M5.43379 5.62047C5.40839 6.95827 6.52905 8.05333 7.86712 8.05333H31.7067C32.6124 8.05333 33.3467 8.7876 33.3467 9.69333C33.3467 10.5991 32.6124 11.3333 31.7067 11.3333H6.31999C3.18999 11.3333 0.65332 8.796 0.65332 5.66667C0.65332 2.53733 3.18999 0 6.31999 0H31.7067C32.6124 0 33.3467 0.734267 33.3467 1.64C33.3467 2.54573 32.6124 3.28 31.7067 3.28H7.81932C6.51672 3.28 5.45839 4.3238 5.43379 5.62047Z" fill="url(#paint10_linear_264_58)"/>
<path d="M31.7066 8.05347H29.0386C29.9443 8.05347 30.6786 8.78773 30.6786 9.69346C30.6786 10.5992 29.9443 11.3335 29.0386 11.3335H31.7066C32.6123 11.3335 33.3466 10.5992 33.3466 9.69346C33.3466 8.78773 32.6123 8.05347 31.7066 8.05347Z" fill="url(#paint11_linear_264_58)"/>
<path d="M5.43368 5.6205C5.45828 4.32383 6.51662 3.28003 7.81922 3.28003H5.15122C3.84862 3.28003 2.79028 4.32383 2.76568 5.6205C2.74028 6.9583 3.86095 8.05336 5.19902 8.05336H7.86702C6.52895 8.05336 5.40828 6.95836 5.43368 5.6205Z" fill="url(#paint12_linear_264_58)"/>
<path d="M31.7066 0H29.0386C29.9443 0 30.6786 0.734267 30.6786 1.64C30.6786 2.54573 29.9443 3.28 29.0386 3.28H31.7066C32.6123 3.28 33.3466 2.54573 33.3466 1.64C33.3466 0.734267 32.6123 0 31.7066 0Z" fill="url(#paint13_linear_264_58)"/>
<path d="M4.2666 24.6666H31.9634V32H4.2666V24.6666Z" fill="url(#paint14_linear_264_58)"/>
<path d="M4.2666 24.6666H31.9634V32H4.2666V24.6666Z" fill="url(#paint15_linear_264_58)"/>
<path d="M4.2666 24.6666V27.634L5.7932 27.635C6.77587 27.6356 7.5722 28.4324 7.5722 29.4151V32H13.5345V27.6361L27.0088 27.634C28.2716 27.634 29.2953 28.6576 29.2953 29.9204V32H31.9633V24.6666H4.2666Z" fill="url(#paint16_linear_264_58)"/>
<path d="M5.43379 28.2871C5.40839 29.6249 6.52905 30.72 7.86712 30.72H31.7067C32.6124 30.72 33.3467 31.4543 33.3467 32.36C33.3467 33.2657 32.6124 34 31.7067 34H6.31999C3.18999 34 0.65332 31.4627 0.65332 28.3333C0.65332 25.204 3.18999 22.6666 6.31999 22.6666H31.7067C32.6124 22.6666 33.3467 23.4009 33.3467 24.3066C33.3467 25.2124 32.6124 25.9466 31.7067 25.9466H7.81932C6.51672 25.9466 5.45839 26.9904 5.43379 28.2871Z" fill="url(#paint17_linear_264_58)"/>
<path d="M7.86725 30.7199C7.76759 30.7199 7.66932 30.7131 7.57239 30.7013V33.2312C7.57239 33.7238 8.16792 33.9705 8.51625 33.6222L9.79885 32.3396C10.1564 31.9821 10.736 31.9821 11.0935 32.3396L12.5908 33.8369C12.9391 34.1852 13.5347 33.9385 13.5347 33.446V30.7199H7.86725Z" fill="url(#paint18_linear_264_58)"/>
<path d="M31.7066 30.72H29.0386C29.9443 30.72 30.6786 31.4542 30.6786 32.36C30.6786 33.2657 29.9443 34 29.0386 34H31.7066C32.6123 34 33.3466 33.2657 33.3466 32.36C33.3466 31.4542 32.6123 30.72 31.7066 30.72Z" fill="url(#paint19_linear_264_58)"/>
<path d="M5.43368 28.2871C5.45828 26.9905 6.51668 25.9467 7.81922 25.9467H5.15122C3.84862 25.9467 2.79028 26.9905 2.76568 28.2871C2.74028 29.6249 3.86095 30.72 5.19902 30.72H7.86702C6.52895 30.72 5.40828 29.625 5.43368 28.2871Z" fill="url(#paint20_linear_264_58)"/>
<path d="M31.7066 22.6666H29.0386C29.9443 22.6666 30.6786 23.4009 30.6786 24.3066C30.6786 25.2124 29.9443 25.9466 29.0386 25.9466H31.7066C32.6123 25.9466 33.3466 25.2124 33.3466 24.3066C33.3466 23.4009 32.6123 22.6666 31.7066 22.6666Z" fill="url(#paint21_linear_264_58)"/>
<path d="M12.7609 31.4662L14.2581 32.9634C14.6065 33.3118 15.202 33.065 15.202 32.5725V27.6361H9.23975V32.3578C9.23975 32.8504 9.83528 33.0971 10.1836 32.7488L11.4662 31.4662C11.8237 31.1086 12.4034 31.1086 12.7609 31.4662Z" fill="url(#paint22_linear_264_58)"/>
</g>
<defs>
<linearGradient id="paint0_linear_264_58" x1="4.7066" y1="17" x2="35.6367" y2="17" gradientUnits="userSpaceOnUse">
<stop stop-color="#F9F3F1"/>
<stop offset="0.5725" stop-color="#EFE2DD"/>
<stop offset="1" stop-color="#CDBFBA"/>
</linearGradient>
<linearGradient id="paint1_linear_264_58" x1="4.7066" y1="17" x2="35.6367" y2="17" gradientUnits="userSpaceOnUse">
<stop stop-color="#F9F3F1"/>
<stop offset="0.5725" stop-color="#EFE2DD"/>
<stop offset="1" stop-color="#CDBFBA"/>
</linearGradient>
<linearGradient id="paint2_linear_264_58" x1="-6.80458e-05" y1="17" x2="26.738" y2="17" gradientUnits="userSpaceOnUse">
<stop stop-color="#F9F3F1"/>
<stop offset="0.5725" stop-color="#EFE2DD"/>
<stop offset="1" stop-color="#CDBFBA"/>
</linearGradient>
<linearGradient id="paint3_linear_264_58" x1="0.806854" y1="17" x2="38.4248" y2="17" gradientUnits="userSpaceOnUse">
<stop stop-color="#7ACAA6"/>
<stop offset="0.5725" stop-color="#09A76D"/>
<stop offset="1" stop-color="#026841"/>
</linearGradient>
<linearGradient id="paint4_linear_264_58" x1="-9.06685" y1="21.0267" x2="35.6341" y2="21.0267" gradientUnits="userSpaceOnUse">
<stop stop-color="#7ACAA6"/>
<stop offset="0.5725" stop-color="#09A76D"/>
<stop offset="1" stop-color="#026841"/>
</linearGradient>
<linearGradient id="paint5_linear_264_58" x1="-9.06679" y1="17.0001" x2="35.634" y2="17.0001" gradientUnits="userSpaceOnUse">
<stop stop-color="#7ACAA6"/>
<stop offset="0.5725" stop-color="#09A76D"/>
<stop offset="1" stop-color="#026841"/>
</linearGradient>
<linearGradient id="paint6_linear_264_58" x1="-9.06685" y1="12.9734" x2="35.6341" y2="12.9734" gradientUnits="userSpaceOnUse">
<stop stop-color="#7ACAA6"/>
<stop offset="0.5725" stop-color="#09A76D"/>
<stop offset="1" stop-color="#026841"/>
</linearGradient>
<linearGradient id="paint7_linear_264_58" x1="4.7066" y1="5.66667" x2="35.6367" y2="5.66667" gradientUnits="userSpaceOnUse">
<stop stop-color="#F9F3F1"/>
<stop offset="0.5725" stop-color="#EFE2DD"/>
<stop offset="1" stop-color="#CDBFBA"/>
</linearGradient>
<linearGradient id="paint8_linear_264_58" x1="4.7066" y1="5.66667" x2="35.6367" y2="5.66667" gradientUnits="userSpaceOnUse">
<stop stop-color="#F9F3F1"/>
<stop offset="0.5725" stop-color="#EFE2DD"/>
<stop offset="1" stop-color="#CDBFBA"/>
</linearGradient>
<linearGradient id="paint9_linear_264_58" x1="-6.80458e-05" y1="5.66667" x2="26.738" y2="5.66667" gradientUnits="userSpaceOnUse">
<stop stop-color="#F9F3F1"/>
<stop offset="0.5725" stop-color="#EFE2DD"/>
<stop offset="1" stop-color="#CDBFBA"/>
</linearGradient>
<linearGradient id="paint10_linear_264_58" x1="0.806854" y1="5.66667" x2="38.4248" y2="5.66667" gradientUnits="userSpaceOnUse">
<stop stop-color="#6BD9E7"/>
<stop offset="0.5725" stop-color="#26A6FE"/>
<stop offset="1" stop-color="#0172FB"/>
</linearGradient>
<linearGradient id="paint11_linear_264_58" x1="-9.06685" y1="9.69346" x2="35.6341" y2="9.69346" gradientUnits="userSpaceOnUse">
<stop stop-color="#6BD9E7"/>
<stop offset="0.5725" stop-color="#26A6FE"/>
<stop offset="1" stop-color="#0172FB"/>
</linearGradient>
<linearGradient id="paint12_linear_264_58" x1="-9.06679" y1="5.6667" x2="35.634" y2="5.6667" gradientUnits="userSpaceOnUse">
<stop stop-color="#6BD9E7"/>
<stop offset="0.5725" stop-color="#26A6FE"/>
<stop offset="1" stop-color="#0172FB"/>
</linearGradient>
<linearGradient id="paint13_linear_264_58" x1="-9.06685" y1="1.64" x2="35.6341" y2="1.64" gradientUnits="userSpaceOnUse">
<stop stop-color="#6BD9E7"/>
<stop offset="0.5725" stop-color="#26A6FE"/>
<stop offset="1" stop-color="#0172FB"/>
</linearGradient>
<linearGradient id="paint14_linear_264_58" x1="4.7066" y1="28.3333" x2="35.6367" y2="28.3333" gradientUnits="userSpaceOnUse">
<stop stop-color="#F9F3F1"/>
<stop offset="0.5725" stop-color="#EFE2DD"/>
<stop offset="1" stop-color="#CDBFBA"/>
</linearGradient>
<linearGradient id="paint15_linear_264_58" x1="4.7066" y1="28.3333" x2="35.6367" y2="28.3333" gradientUnits="userSpaceOnUse">
<stop stop-color="#F9F3F1"/>
<stop offset="0.5725" stop-color="#EFE2DD"/>
<stop offset="1" stop-color="#CDBFBA"/>
</linearGradient>
<linearGradient id="paint16_linear_264_58" x1="-6.57787" y1="28.3333" x2="27.9586" y2="28.3333" gradientUnits="userSpaceOnUse">
<stop stop-color="#F9F3F1"/>
<stop offset="0.5725" stop-color="#EFE2DD"/>
<stop offset="1" stop-color="#CDBFBA"/>
</linearGradient>
<linearGradient id="paint17_linear_264_58" x1="0.806854" y1="28.3333" x2="38.4248" y2="28.3333" gradientUnits="userSpaceOnUse">
<stop stop-color="#FFE177"/>
<stop offset="0.5725" stop-color="#FEB137"/>
<stop offset="1" stop-color="#FE646F"/>
</linearGradient>
<linearGradient id="paint18_linear_264_58" x1="-0.155413" y1="32.3506" x2="19.4621" y2="32.3506" gradientUnits="userSpaceOnUse">
<stop stop-color="#FFE177"/>
<stop offset="0.5725" stop-color="#FEB137"/>
<stop offset="1" stop-color="#FE646F"/>
</linearGradient>
<linearGradient id="paint19_linear_264_58" x1="-9.06685" y1="32.36" x2="35.6341" y2="32.36" gradientUnits="userSpaceOnUse">
<stop stop-color="#FFE177"/>
<stop offset="0.5725" stop-color="#FEB137"/>
<stop offset="1" stop-color="#FE646F"/>
</linearGradient>
<linearGradient id="paint20_linear_264_58" x1="-9.06679" y1="28.3333" x2="35.634" y2="28.3333" gradientUnits="userSpaceOnUse">
<stop stop-color="#FFE177"/>
<stop offset="0.5725" stop-color="#FEB137"/>
<stop offset="1" stop-color="#FE646F"/>
</linearGradient>
<linearGradient id="paint21_linear_264_58" x1="-9.06685" y1="24.3066" x2="35.6341" y2="24.3066" gradientUnits="userSpaceOnUse">
<stop stop-color="#FFE177"/>
<stop offset="0.5725" stop-color="#FEB137"/>
<stop offset="1" stop-color="#FE646F"/>
</linearGradient>
<linearGradient id="paint22_linear_264_58" x1="9.48111" y1="30.3813" x2="15.7018" y2="30.3813" gradientUnits="userSpaceOnUse">
<stop stop-color="#FE646F"/>
<stop offset="0.5725" stop-color="#FB2B3A"/>
<stop offset="1" stop-color="#C41926"/>
</linearGradient>
<clipPath id="clip0_264_58">
<rect width="34" height="34" fill="white"/>
</clipPath>
</defs>
</svg>
