<svg width="36" height="36" viewBox="0 0 36 36" fill="none" xmlns="http://www.w3.org/2000/svg">
<g clip-path="url(#clip0_315_672)">
<path d="M14.8888 29.7174V18.7812C14.8888 17.5375 15.897 16.5293 17.1407 16.5293H18.859C20.1026 16.5293 21.1108 17.5375 21.1108 18.7812V29.7174C21.1108 30.9611 20.1027 31.9693 18.859 31.9693H17.1407C15.897 31.9692 14.8888 30.9611 14.8888 29.7174Z" fill="url(#paint0_linear_315_672)"/>
<path d="M25.9452 36.0001H10.0545C8.79654 36.0001 7.77673 34.9803 7.77673 33.7223V28.9516C7.77673 27.6936 8.79654 26.6738 10.0545 26.6738H25.9452C27.2032 26.6738 28.223 27.6936 28.223 28.9516V33.7223C28.223 34.9803 27.2032 36.0001 25.9452 36.0001Z" fill="url(#paint1_linear_315_672)"/>
<path d="M25.9447 26.6738H23.1217C24.3797 26.6738 25.3995 27.6936 25.3995 28.9516V33.7223C25.3995 34.9803 24.3797 36.0001 23.1217 36.0001H25.9447C27.2027 36.0001 28.2225 34.9803 28.2225 33.7223V28.9516C28.2225 27.6936 27.2027 26.6738 25.9447 26.6738Z" fill="url(#paint2_linear_315_672)"/>
<path d="M3.25204 17.3236C2.90562 17.3236 2.55397 17.2547 2.21326 17.1135C1.19641 16.6923 0.564792 15.747 0.564792 14.6465C0.564792 14.1595 0.959609 13.7647 1.44655 13.7647C1.93357 13.7647 2.32831 14.1595 2.32831 14.6465C2.32831 15.2087 2.75678 15.4298 2.88812 15.4842C3.01947 15.5387 3.47876 15.6852 3.87626 15.2876C4.62011 14.5438 4.62011 13.3334 3.87626 12.5894L2.69117 11.4044C1.1349 9.84816 0.277832 7.77892 0.277832 5.57798C0.277832 3.52362 1.94915 1.85229 4.00351 1.85229C6.05787 1.85229 7.7292 3.52362 7.7292 5.57798V6.29016C7.7292 6.7771 7.33438 7.17192 6.84744 7.17192C6.36042 7.17192 5.96568 6.7771 5.96568 6.29016V5.57798C5.96568 4.49602 5.08547 3.61581 4.00351 3.61581C2.92156 3.61581 2.04135 4.49602 2.04135 5.57798C2.04135 7.30785 2.71502 8.93424 3.93826 10.1574L5.12335 11.3425C6.55483 12.774 6.55483 15.1032 5.12335 16.5347C4.60586 17.0521 3.93946 17.3236 3.25204 17.3236Z" fill="url(#paint3_linear_315_672)"/>
<path d="M32.7472 17.3237C33.0937 17.3237 33.4453 17.2547 33.786 17.1136C34.8029 16.6924 35.4345 15.7471 35.4345 14.6466C35.4345 14.1596 35.0397 13.7648 34.5527 13.7648C34.0657 13.7648 33.671 14.1596 33.671 14.6466C33.671 15.2088 33.2425 15.4299 33.1112 15.4843C32.9798 15.5388 32.5205 15.6853 32.123 15.2877C31.3792 14.5439 31.3792 13.3334 32.123 12.5895L33.3081 11.4044C34.8644 9.84809 35.7215 7.77892 35.7215 5.57798C35.7215 3.52362 34.0502 1.85229 31.9958 1.85229C29.9415 1.85229 28.2701 3.52362 28.2701 5.57798V6.29016C28.2701 6.7771 28.665 7.17192 29.1519 7.17192C29.6389 7.17192 30.0337 6.7771 30.0337 6.29016V5.57805C30.0337 4.49609 30.9139 3.61589 31.9958 3.61589C33.0778 3.61589 33.958 4.49609 33.958 5.57805C33.958 7.30792 33.2843 8.93431 32.0611 10.1575L30.876 11.3426C29.4445 12.7741 29.4445 15.1032 30.876 16.5347C31.3934 17.0522 32.0599 17.3237 32.7472 17.3237Z" fill="url(#paint4_linear_315_672)"/>
<path d="M17.9999 24.0602C11.3559 24.0602 5.96985 18.6741 5.96985 12.0301V1.91652C5.96985 0.858058 6.82791 0 7.88637 0H28.1136C29.1721 0 30.0301 0.858058 30.0301 1.91652V12.0301C30.0301 18.6742 24.644 24.0602 17.9999 24.0602Z" fill="url(#paint5_linear_315_672)"/>
<path d="M28.1132 0H25.2902C26.3487 0 27.2067 0.858058 27.2067 1.91652V12.0301C27.2067 18.1966 22.5669 23.2785 16.5881 23.9773C17.0512 24.0314 17.522 24.0602 17.9997 24.0602C24.6437 24.0602 30.0298 18.6741 30.0298 12.0301V1.91652C30.0298 0.858058 29.1717 0 28.1132 0V0Z" fill="url(#paint6_linear_315_672)"/>
<path d="M23.6414 34.1003H12.3584C11.8148 34.1003 11.374 33.6596 11.374 33.1159V29.5578C11.374 29.0141 11.8148 28.5734 12.3584 28.5734H23.6414C24.185 28.5734 24.6258 29.0141 24.6258 29.5578V33.1159C24.6258 33.6596 24.185 34.1003 23.6414 34.1003Z" fill="url(#paint7_linear_315_672)"/>
<path d="M19.1916 6.253L20.2532 8.40412L22.627 8.74908C23.8821 8.93144 24.3833 10.4739 23.4751 11.3591L21.7573 13.0335L22.1628 15.3978C22.3772 16.6478 21.0652 17.601 19.9426 17.0109L17.8193 15.8946L15.6961 17.0109C14.5735 17.601 13.2614 16.6478 13.4759 15.3978L13.8813 13.0335L12.1636 11.3591C11.2554 10.4739 11.7565 8.93144 13.0116 8.74908L15.3855 8.40412L16.4471 6.253C17.0086 5.1157 18.6303 5.1157 19.1916 6.253Z" fill="#7D8895"/>
<path d="M22.6274 8.74896L21.1854 8.53943V8.54114C21.1854 11.9208 18.4456 14.6606 15.0659 14.6606C14.572 14.6606 14.0918 14.6017 13.6317 14.4912L13.4762 15.3977C13.2618 16.6477 14.5739 17.6009 15.6964 17.0107L17.8197 15.8945L19.943 17.0107C21.0655 17.6009 22.3776 16.6477 22.1632 15.3977L21.7577 13.0334L23.4755 11.359C24.3837 10.4737 23.8825 8.93132 22.6274 8.74896Z" fill="#2E2E2E"/>
</g>
<defs>
<linearGradient id="paint0_linear_315_672" x1="10.8114" y1="24.2493" x2="22.8867" y2="24.2493" gradientUnits="userSpaceOnUse">
<stop stop-color="#FFE177"/>
<stop offset="0.5725" stop-color="#FEB137"/>
<stop offset="1" stop-color="#FE646F"/>
</linearGradient>
<linearGradient id="paint1_linear_315_672" x1="7.7768" y1="31.337" x2="28.223" y2="31.337" gradientUnits="userSpaceOnUse">
<stop stop-color="#537983"/>
<stop offset="1" stop-color="#3E5959"/>
</linearGradient>
<linearGradient id="paint2_linear_315_672" x1="14.5142" y1="31.337" x2="28.3019" y2="31.337" gradientUnits="userSpaceOnUse">
<stop stop-color="#537983"/>
<stop offset="1" stop-color="#384949"/>
</linearGradient>
<linearGradient id="paint3_linear_315_672" x1="-1.39913" y1="9.58794" x2="10.0304" y2="9.58794" gradientUnits="userSpaceOnUse">
<stop stop-color="#FFE177"/>
<stop offset="0.5725" stop-color="#FEB137"/>
<stop offset="1" stop-color="#FE646F"/>
</linearGradient>
<linearGradient id="paint4_linear_315_672" x1="25.4065" y1="9.58801" x2="37.2708" y2="9.58801" gradientUnits="userSpaceOnUse">
<stop stop-color="#FFE177"/>
<stop offset="0.5725" stop-color="#FEB137"/>
<stop offset="1" stop-color="#FE646F"/>
</linearGradient>
<linearGradient id="paint5_linear_315_672" x1="5.96985" y1="12.0301" x2="32.7466" y2="12.0301" gradientUnits="userSpaceOnUse">
<stop stop-color="#FFE177"/>
<stop offset="0.5725" stop-color="#FEB137"/>
<stop offset="1" stop-color="#FE646F"/>
</linearGradient>
<linearGradient id="paint6_linear_315_672" x1="3.9338" y1="12.0301" x2="29.4824" y2="12.0301" gradientUnits="userSpaceOnUse">
<stop stop-color="#FFE177"/>
<stop offset="0.5725" stop-color="#FEB137"/>
<stop offset="1" stop-color="#FE646F"/>
</linearGradient>
<linearGradient id="paint7_linear_315_672" x1="11.374" y1="31.3369" x2="24.6258" y2="31.3369" gradientUnits="userSpaceOnUse">
<stop stop-color="#F9F3F1"/>
<stop offset="0.5725" stop-color="#EFE2DD"/>
<stop offset="1" stop-color="#CDBFBA"/>
</linearGradient>
<clipPath id="clip0_315_672">
<rect width="36" height="36" fill="white"/>
</clipPath>
</defs>
</svg>
