<svg width="36" height="36" viewBox="0 0 36 36" fill="none" xmlns="http://www.w3.org/2000/svg">
<g clip-path="url(#clip0_3998_970)">
<path opacity="0.4" d="M14.8889 29.7174V18.7812C14.8889 17.5375 15.8971 16.5293 17.1408 16.5293H18.8591C20.1027 16.5293 21.111 17.5375 21.111 18.7812V29.7174C21.111 30.9611 20.1028 31.9693 18.8591 31.9693H17.1408C15.8972 31.9692 14.8889 30.9611 14.8889 29.7174Z" fill="#BEC3C9"/>
<path d="M25.9451 36.0001H10.0544C8.79642 36.0001 7.77661 34.9803 7.77661 33.7223V28.9516C7.77661 27.6936 8.79642 26.6738 10.0544 26.6738H25.9451C27.2031 26.6738 28.2229 27.6936 28.2229 28.9516V33.7223C28.2229 34.9803 27.2031 36.0001 25.9451 36.0001Z" fill="#7D8895"/>
<path d="M25.9449 26.6738H23.1218C24.3798 26.6738 25.3996 27.6936 25.3996 28.9516V33.7223C25.3996 34.9803 24.3798 36.0001 23.1218 36.0001H25.9449C27.2028 36.0001 28.2226 34.9803 28.2226 33.7223V28.9516C28.2226 27.6936 27.2028 26.6738 25.9449 26.6738Z" fill="#7D8895"/>
<path opacity="0.4" d="M3.25204 17.3236C2.90562 17.3236 2.55397 17.2547 2.21326 17.1135C1.19641 16.6923 0.564792 15.747 0.564792 14.6465C0.564792 14.1595 0.959609 13.7647 1.44655 13.7647C1.93357 13.7647 2.32831 14.1595 2.32831 14.6465C2.32831 15.2087 2.75678 15.4298 2.88812 15.4842C3.01947 15.5387 3.47876 15.6852 3.87626 15.2876C4.62011 14.5438 4.62011 13.3334 3.87626 12.5894L2.69117 11.4044C1.1349 9.84816 0.277832 7.77892 0.277832 5.57798C0.277832 3.52362 1.94915 1.85229 4.00351 1.85229C6.05787 1.85229 7.7292 3.52362 7.7292 5.57798V6.29016C7.7292 6.7771 7.33438 7.17192 6.84744 7.17192C6.36042 7.17192 5.96568 6.7771 5.96568 6.29016V5.57798C5.96568 4.49602 5.08547 3.61581 4.00351 3.61581C2.92156 3.61581 2.04135 4.49602 2.04135 5.57798C2.04135 7.30785 2.71502 8.93424 3.93826 10.1574L5.12335 11.3425C6.55483 12.774 6.55483 15.1032 5.12335 16.5347C4.60586 17.0521 3.93946 17.3236 3.25204 17.3236Z" fill="#BEC3C9"/>
<path opacity="0.4" d="M32.7474 17.3237C33.0938 17.3237 33.4454 17.2547 33.7861 17.1136C34.803 16.6924 35.4346 15.7471 35.4346 14.6466C35.4346 14.1596 35.0398 13.7648 34.5528 13.7648C34.0658 13.7648 33.6711 14.1596 33.6711 14.6466C33.6711 15.2088 33.2426 15.4299 33.1113 15.4843C32.9799 15.5388 32.5206 15.6853 32.1231 15.2877C31.3793 14.5439 31.3793 13.3334 32.1231 12.5895L33.3082 11.4044C34.8646 9.84809 35.7216 7.77892 35.7216 5.57798C35.7216 3.52362 34.0503 1.85229 31.996 1.85229C29.9416 1.85229 28.2703 3.52362 28.2703 5.57798V6.29016C28.2703 6.7771 28.6651 7.17192 29.152 7.17192C29.639 7.17192 30.0338 6.7771 30.0338 6.29016V5.57805C30.0338 4.49609 30.914 3.61589 31.996 3.61589C33.0779 3.61589 33.9581 4.49609 33.9581 5.57805C33.9581 7.30792 33.2845 8.93431 32.0612 10.1575L30.8761 11.3426C29.4446 12.7741 29.4446 15.1032 30.8761 16.5347C31.3935 17.0522 32.06 17.3237 32.7474 17.3237Z" fill="#BEC3C9"/>
<path d="M17.9998 24.0602C11.3557 24.0602 5.96973 18.6741 5.96973 12.0301V1.91652C5.96973 0.858058 6.82779 0 7.88625 0H28.1135C29.1719 0 30.03 0.858058 30.03 1.91652V12.0301C30.03 18.6742 24.6439 24.0602 17.9998 24.0602Z" fill="#BEC3C9"/>
<path opacity="0.4" d="M28.1132 0H25.2902C26.3487 0 27.2067 0.858058 27.2067 1.91652V12.0301C27.2067 18.1966 22.5669 23.2785 16.5881 23.9773C17.0512 24.0314 17.522 24.0602 17.9997 24.0602C24.6437 24.0602 30.0298 18.6741 30.0298 12.0301V1.91652C30.0298 0.858058 29.1717 0 28.1132 0V0Z" fill="#BEC3C9"/>
<path d="M23.6414 34.1002H12.3584C11.8148 34.1002 11.374 33.6595 11.374 33.1158V29.5576C11.374 29.014 11.8148 28.5732 12.3584 28.5732H23.6414C24.185 28.5732 24.6258 29.014 24.6258 29.5576V33.1158C24.6258 33.6595 24.185 34.1002 23.6414 34.1002Z" fill="#7D8895"/>
<path opacity="0.5" d="M19.1917 6.25288L20.2533 8.404L22.6272 8.74896C23.8823 8.93132 24.3834 10.4737 23.4752 11.359L21.7575 13.0334L22.1629 15.3976C22.3773 16.6477 21.0653 17.6009 19.9427 17.0107L17.8195 15.8945L15.6962 17.0107C14.5736 17.6009 13.2616 16.6477 13.476 15.3976L13.8815 13.0334L12.1637 11.359C11.2555 10.4737 11.7567 8.93132 13.0118 8.74896L15.3856 8.404L16.4472 6.25288C17.0087 5.11558 18.6304 5.11558 19.1917 6.25288Z" fill="#7D8895"/>
<path opacity="0.5" d="M22.6275 8.74884L21.1855 8.53931V8.54102C21.1855 11.9207 18.4457 14.6605 15.0661 14.6605C14.5721 14.6605 14.0919 14.6016 13.6318 14.4911L13.4763 15.3975C13.262 16.6476 14.574 17.6008 15.6965 17.0106L17.8198 15.8944L19.9431 17.0106C21.0657 17.6008 22.3777 16.6476 22.1633 15.3975L21.7578 13.0333L23.4756 11.3589C24.3838 10.4736 23.8826 8.9312 22.6275 8.74884Z" fill="#2E2E2E"/>
</g>
<defs>
<clipPath id="clip0_3998_970">
<rect width="36" height="36" fill="white"/>
</clipPath>
</defs>
</svg>
