<svg width="36" height="36" viewBox="0 0 36 36" fill="none" xmlns="http://www.w3.org/2000/svg">
<g clip-path="url(#clip0_264_61)">
<path d="M24.3299 0H9.32874C8.30027 0 7.46655 0.833718 7.46655 1.86219V32.0209C7.46655 33.0493 8.30027 33.8831 9.32874 33.8831H30.6606C31.689 33.8831 32.5228 33.0493 32.5228 32.0209V8.19282L24.3299 0Z" fill="url(#paint0_linear_264_61)"/>
<path d="M30.6604 33.8831H27.8355C28.864 33.8831 29.6977 33.0493 29.6977 32.0209V11.8685C29.6977 10.818 28.8461 9.96642 27.7956 9.96642H24.2048C23.2988 9.96642 22.5643 9.23195 22.5643 8.32595V0H24.3298L32.5227 8.19282V32.0209C32.5226 33.0493 31.6889 33.8831 30.6604 33.8831Z" fill="url(#paint1_linear_264_61)"/>
<path d="M24.3298 0V6.55235C24.3298 7.45835 25.0643 8.19282 25.9703 8.19282H32.5226C32.5226 3.66805 28.8546 0 24.3298 0Z" fill="url(#paint2_linear_264_61)"/>
<path d="M17.6427 27.0125C18.7129 25.775 19.3603 24.1617 19.3603 22.3973C19.3603 18.4989 16.1999 15.3385 12.3015 15.3385C10.4304 15.3385 8.72968 16.0668 7.46643 17.255V32.0208C7.46643 33.0493 8.30015 33.883 9.32862 33.883H10.0916L10.9494 33.0252C11.5899 32.3847 12.6285 32.3847 13.2691 33.0252L14.1268 33.883H17.6427V27.0125Z" fill="url(#paint3_linear_264_61)"/>
<path d="M11.5036 33.0253L14.1862 35.7078C14.8103 36.3319 15.8773 35.8899 15.8773 35.0074V26.1631H5.19495V34.6228C5.19495 35.5054 6.26196 35.9473 6.88603 35.3233L9.18403 33.0253C9.82455 32.3847 10.8631 32.3847 11.5036 33.0253Z" fill="url(#paint4_linear_264_61)"/>
<path d="M15.8772 26.1628V35.0075C15.8772 35.8899 14.8099 36.3318 14.1859 35.7078L13.0522 34.5741V30.7595C12.2708 31.0588 11.4224 31.2219 10.5358 31.2219C8.40189 31.2219 6.48895 30.2753 5.19507 28.7781V26.1628H15.8772Z" fill="url(#paint5_linear_264_61)"/>
<path d="M5.19507 26.1628H8.43718V33.7723L6.88565 35.3231C6.26165 35.9471 5.19507 35.5052 5.19507 34.6228V26.1628Z" fill="url(#paint6_linear_264_61)"/>
<path d="M8.43718 30.9047V26.1628H5.19507V28.7781C6.04587 29.7626 7.16434 30.5089 8.43718 30.9047Z" fill="url(#paint7_linear_264_61)"/>
<path d="M15.8773 26.1628V35.0075C15.8773 35.8899 14.81 36.3318 14.186 35.7078L12.6351 34.157V26.1628H15.8773Z" fill="url(#paint8_linear_264_61)"/>
<path d="M13.0523 30.7595V34.5741L14.186 35.7078C14.81 36.3318 15.8773 35.8899 15.8773 35.0075V26.1628H12.6351V30.9025C12.7759 30.8586 12.9155 30.8119 13.0523 30.7595Z" fill="url(#paint9_linear_264_61)"/>
<path d="M10.5361 29.4562C14.4346 29.4562 17.5949 26.2958 17.5949 22.3973C17.5949 18.4988 14.4346 15.3385 10.5361 15.3385C6.63764 15.3385 3.47729 18.4988 3.47729 22.3973C3.47729 26.2958 6.63764 29.4562 10.5361 29.4562Z" fill="url(#paint10_linear_264_61)"/>
<path d="M10.5361 15.3385C10.0523 15.3385 9.57996 15.3873 9.12354 15.48C12.3451 16.1344 14.7697 18.9827 14.7697 22.3973C14.7697 25.812 12.3451 28.6603 9.12354 29.3146C9.57996 29.4073 10.0523 29.4562 10.5361 29.4562C14.4346 29.4562 17.595 26.2959 17.595 22.3973C17.595 18.4988 14.4346 15.3385 10.5361 15.3385Z" fill="url(#paint11_linear_264_61)"/>
<path d="M10.5361 26.6322C12.875 26.6322 14.771 24.7362 14.771 22.3973C14.771 20.0584 12.875 18.1624 10.5361 18.1624C8.1972 18.1624 6.30115 20.0584 6.30115 22.3973C6.30115 24.7362 8.1972 26.6322 10.5361 26.6322Z" fill="url(#paint12_linear_264_61)"/>
<path d="M29.1086 12.818H10.8806C10.6519 12.818 10.4666 12.6326 10.4666 12.404V10.7236C10.4666 10.4949 10.6519 10.3096 10.8806 10.3096H29.1086C29.3372 10.3096 29.5226 10.4949 29.5226 10.7236V12.404C29.5226 12.6326 29.3372 12.818 29.1086 12.818Z" fill="url(#paint13_linear_264_61)"/>
<path d="M21.0843 7.44055H10.8806C10.6519 7.44055 10.4666 7.25519 10.4666 7.02655V5.34613C10.4666 5.11749 10.6519 4.93213 10.8806 4.93213H21.0843C21.313 4.93213 21.4983 5.11749 21.4983 5.34613V7.02655C21.4983 7.25519 21.313 7.44055 21.0843 7.44055Z" fill="url(#paint14_linear_264_61)"/>
<path d="M29.1087 23.5732H20.4086C20.18 23.5732 19.9946 23.3879 19.9946 23.1592V21.4788C19.9946 21.2502 20.18 21.0648 20.4086 21.0648H29.1087C29.3373 21.0648 29.5227 21.2502 29.5227 21.4788V23.1592C29.5227 23.3879 29.3373 23.5732 29.1087 23.5732Z" fill="url(#paint15_linear_264_61)"/>
<path d="M29.1087 18.1957H20.4086C20.18 18.1957 19.9946 18.0103 19.9946 17.7817V16.1013C19.9946 15.8726 20.18 15.6873 20.4086 15.6873H29.1087C29.3373 15.6873 29.5227 15.8726 29.5227 16.1013V17.7817C29.5227 18.0103 29.3373 18.1957 29.1087 18.1957Z" fill="url(#paint16_linear_264_61)"/>
<path d="M29.1087 28.9507H20.4086C20.18 28.9507 19.9946 28.7653 19.9946 28.5367V26.8563C19.9946 26.6276 20.18 26.4423 20.4086 26.4423H29.1087C29.3373 26.4423 29.5227 26.6276 29.5227 26.8563V28.5367C29.5227 28.7654 29.3373 28.9507 29.1087 28.9507Z" fill="url(#paint17_linear_264_61)"/>
</g>
<defs>
<linearGradient id="paint0_linear_264_61" x1="5.72592" y1="16.9415" x2="34.7418" y2="16.9415" gradientUnits="userSpaceOnUse">
<stop stop-color="#F9F3F1"/>
<stop offset="0.5725" stop-color="#EFE2DD"/>
<stop offset="1" stop-color="#CDBFBA"/>
</linearGradient>
<linearGradient id="paint1_linear_264_61" x1="10.5036" y1="16.9415" x2="27.9245" y2="16.9415" gradientUnits="userSpaceOnUse">
<stop stop-color="#F9F3F1"/>
<stop offset="0.5725" stop-color="#EFE2DD"/>
<stop offset="1" stop-color="#CDBFBA"/>
</linearGradient>
<linearGradient id="paint2_linear_264_61" x1="22.2427" y1="4.09645" x2="34.2535" y2="4.09645" gradientUnits="userSpaceOnUse">
<stop stop-color="#F9F3F1"/>
<stop offset="0.5725" stop-color="#EFE2DD"/>
<stop offset="1" stop-color="#CDBFBA"/>
</linearGradient>
<linearGradient id="paint3_linear_264_61" x1="0.018113" y1="24.6108" x2="18.4686" y2="24.6108" gradientUnits="userSpaceOnUse">
<stop stop-color="#F9F3F1"/>
<stop offset="0.5725" stop-color="#EFE2DD"/>
<stop offset="1" stop-color="#CDBFBA"/>
</linearGradient>
<linearGradient id="paint4_linear_264_61" x1="8.91226" y1="31.0815" x2="13.8781" y2="31.0815" gradientUnits="userSpaceOnUse">
<stop stop-color="#F9F3F1"/>
<stop offset="0.5725" stop-color="#EFE2DD"/>
<stop offset="1" stop-color="#CDBFBA"/>
</linearGradient>
<linearGradient id="paint5_linear_264_61" x1="2.70048" y1="31.0814" x2="12.6728" y2="31.0814" gradientUnits="userSpaceOnUse">
<stop stop-color="#F9F3F1"/>
<stop offset="0.5725" stop-color="#EFE2DD"/>
<stop offset="1" stop-color="#CDBFBA"/>
</linearGradient>
<linearGradient id="paint6_linear_264_61" x1="3.97107" y1="30.889" x2="9.00111" y2="30.889" gradientUnits="userSpaceOnUse">
<stop stop-color="#FE646F"/>
<stop offset="0.5725" stop-color="#FB2B3A"/>
<stop offset="1" stop-color="#C41926"/>
</linearGradient>
<linearGradient id="paint7_linear_264_61" x1="2.79458" y1="28.5338" x2="8.39215" y2="28.5338" gradientUnits="userSpaceOnUse">
<stop stop-color="#FE646F"/>
<stop offset="0.5725" stop-color="#FB2B3A"/>
<stop offset="1" stop-color="#C41926"/>
</linearGradient>
<linearGradient id="paint8_linear_264_61" x1="10.7005" y1="31.0814" x2="17.0127" y2="31.0814" gradientUnits="userSpaceOnUse">
<stop stop-color="#6BD9E7"/>
<stop offset="0.5725" stop-color="#26A6FE"/>
<stop offset="1" stop-color="#0172FB"/>
</linearGradient>
<linearGradient id="paint9_linear_264_61" x1="7.85348" y1="31.0814" x2="15.2737" y2="31.0814" gradientUnits="userSpaceOnUse">
<stop stop-color="#6BD9E7"/>
<stop offset="0.5725" stop-color="#26A6FE"/>
<stop offset="1" stop-color="#0172FB"/>
</linearGradient>
<linearGradient id="paint10_linear_264_61" x1="3.45372" y1="22.3973" x2="20.7727" y2="22.3973" gradientUnits="userSpaceOnUse">
<stop stop-color="#FFE177"/>
<stop offset="0.5725" stop-color="#FEB137"/>
<stop offset="1" stop-color="#FE646F"/>
</linearGradient>
<linearGradient id="paint11_linear_264_61" x1="1.07732" y1="22.3973" x2="17.9231" y2="22.3973" gradientUnits="userSpaceOnUse">
<stop stop-color="#FFE177"/>
<stop offset="0.5725" stop-color="#FEB137"/>
<stop offset="1" stop-color="#FE646F"/>
</linearGradient>
<linearGradient id="paint12_linear_264_61" x1="3.40632" y1="22.3973" x2="15.8087" y2="22.3973" gradientUnits="userSpaceOnUse">
<stop stop-color="#FFE177"/>
<stop offset="0.5725" stop-color="#FEB137"/>
<stop offset="1" stop-color="#FE646F"/>
</linearGradient>
<linearGradient id="paint13_linear_264_61" x1="11.0738" y1="11.5638" x2="29.3906" y2="11.5638" gradientUnits="userSpaceOnUse">
<stop stop-color="#537983"/>
<stop offset="1" stop-color="#3E5959"/>
</linearGradient>
<linearGradient id="paint14_linear_264_61" x1="11.2202" y1="6.18634" x2="33.9527" y2="6.18634" gradientUnits="userSpaceOnUse">
<stop stop-color="#537983"/>
<stop offset="1" stop-color="#3E5959"/>
</linearGradient>
<linearGradient id="paint15_linear_264_61" x1="9.74745" y1="22.319" x2="29.3812" y2="22.319" gradientUnits="userSpaceOnUse">
<stop stop-color="#537983"/>
<stop offset="1" stop-color="#3E5959"/>
</linearGradient>
<linearGradient id="paint16_linear_264_61" x1="9.74745" y1="16.9415" x2="29.3812" y2="16.9415" gradientUnits="userSpaceOnUse">
<stop stop-color="#537983"/>
<stop offset="1" stop-color="#3E5959"/>
</linearGradient>
<linearGradient id="paint17_linear_264_61" x1="9.74745" y1="27.6965" x2="29.3812" y2="27.6965" gradientUnits="userSpaceOnUse">
<stop stop-color="#537983"/>
<stop offset="1" stop-color="#3E5959"/>
</linearGradient>
<clipPath id="clip0_264_61">
<rect width="36" height="36" fill="white"/>
</clipPath>
</defs>
</svg>
