<svg width="36" height="36" viewBox="0 0 36 36" fill="none" xmlns="http://www.w3.org/2000/svg">
<g clip-path="url(#clip0_264_59)">
<path d="M28.4015 36H7.59813C6.54199 36 5.80622 34.9452 6.1776 33.9565C6.64001 32.7255 7.30162 31.6163 8.1158 30.6818C9.77336 28.7795 12.0625 27.6028 14.5922 27.6028H21.4073C25.1776 27.6028 28.4152 30.2167 29.82 33.9513C30.1928 34.942 29.46 36 28.4015 36Z" fill="url(#paint0_linear_264_59)"/>
<path d="M29.8226 33.9564C28.7124 31.001 26.4547 28.7465 23.6932 27.9326C23.6658 27.9246 23.6364 27.9171 23.6057 27.91C22.9014 27.7107 22.1658 27.6028 21.4079 27.6028H14.5927C13.8031 27.6028 13.037 27.7175 12.3062 27.933C13.866 29.1834 15.8456 29.9318 18.0003 29.9318C19.0972 29.9318 20.1487 29.7379 21.1225 29.3824C22.3112 28.9486 23.6421 29.2448 24.5438 30.1324C25.5953 31.1674 26.4399 32.4713 26.9966 33.9512C27.3692 34.9419 26.6364 35.9999 25.5779 35.9999H28.4019C29.4581 36 30.1939 34.9451 29.8226 33.9564Z" fill="url(#paint1_linear_264_59)"/>
<path d="M20.1151 32.1038L18.6868 33.8014C18.3283 34.2275 17.6723 34.2275 17.3138 33.8014L15.8855 32.1038C15.2802 31.3844 14.9484 30.4744 14.9484 29.5342V27.0964H21.0522V29.5342C21.0523 30.4744 20.7203 31.3844 20.1151 32.1038Z" fill="url(#paint2_linear_264_59)"/>
<path d="M14.9485 29.4074C15.9027 29.7466 16.9299 29.9318 18.0004 29.9318C19.0709 29.9318 20.0981 29.7466 21.0523 29.4074V27.0964H14.9485V29.4074Z" fill="url(#paint3_linear_264_59)"/>
<path d="M18.0003 28.167C12.9683 28.167 8.88904 24.0877 8.88904 19.0558V16.4206C8.88904 11.3885 12.9683 7.30933 18.0003 7.30933C23.0323 7.30933 27.1115 11.3886 27.1115 16.4206V19.0558C27.1116 24.0878 23.0323 28.167 18.0003 28.167Z" fill="url(#paint4_linear_264_59)"/>
<path d="M26.5091 13.1567C26.5091 13.1567 26.5084 13.1561 26.5082 13.156C26.2691 12.5318 25.963 11.9409 25.599 11.3921C25.261 10.8826 24.8729 10.4084 24.4424 9.97796C22.794 8.32886 20.5162 7.3092 17.9999 7.3092C14.8266 7.3092 12.0322 8.93148 10.4008 11.3921C10.0367 11.9411 9.73042 12.5324 9.49121 13.1569H21.0197C22.8094 13.1569 24.2804 14.5964 24.2871 16.3861C24.2871 16.3976 24.2871 16.4091 24.2871 16.4206V19.0558C24.2871 23.6075 20.9493 27.3795 16.5879 28.058C17.0481 28.1296 17.5196 28.167 17.9999 28.167C23.0319 28.167 27.1111 24.0878 27.1111 19.0558V16.4206C27.1112 15.2704 26.8981 14.1699 26.5091 13.1567Z" fill="url(#paint5_linear_264_59)"/>
<path d="M18.2507 9.89099L17.7262 11.4C17.0319 13.3975 15.1491 14.7364 13.0344 14.7364C11.7353 14.7364 10.4893 15.2526 9.57071 16.1712L8.89032 16.8516C7.76602 15.057 7.75981 12.7793 8.87416 10.9785L9.54714 9.89099H18.2507Z" fill="url(#paint6_linear_264_59)"/>
<path d="M18.2514 9.89099L17.7292 11.3919L17.7264 11.3997C17.4942 12.0672 17.1294 12.6614 16.6672 13.1567C16.2234 13.633 15.6885 14.0183 15.0957 14.2886C14.6467 14.0839 14.2309 13.8131 13.8628 13.4868C13.6221 13.2736 13.3114 13.1567 12.9899 13.1567H8.0929C8.17546 12.5492 8.35822 11.9522 8.64259 11.3919C8.71386 11.2515 8.79078 11.1139 8.87475 10.9784L9.54723 9.89099H18.2514Z" fill="url(#paint7_linear_264_59)"/>
<path d="M14.0781 9.89099L14.6026 11.4C15.2969 13.3975 17.1797 14.7364 19.2945 14.7364H22.9655C24.2646 14.7364 25.5105 15.2526 26.4292 16.1712L27.1095 16.8516C28.2338 15.057 28.2401 12.7793 27.1257 10.9785L26.4527 9.89099H14.0781Z" fill="url(#paint8_linear_264_59)"/>
<path d="M27.9576 13.9019C27.9576 14.9244 27.6753 15.9468 27.1115 16.848C27.1108 16.8494 27.1101 16.8501 27.1094 16.8515L26.4292 16.1712C25.7278 15.4698 24.8358 15.0034 23.8754 14.822C23.3144 13.8271 22.2419 13.1567 21.0204 13.1567H15.6617C15.1995 12.6614 14.8347 12.0672 14.6025 11.3997L14.0782 9.89099H26.4532L27.1256 10.9784C27.6803 11.8746 27.9576 12.8879 27.9576 13.9019Z" fill="url(#paint9_linear_264_59)"/>
<path d="M14.0226 20.1539C12.9824 20.1539 12.1361 19.3077 12.1361 18.2675C12.1361 17.9752 12.3731 17.7383 12.6653 17.7383C12.9576 17.7383 13.1946 17.9752 13.1946 18.2675C13.1946 18.7241 13.566 19.0955 14.0226 19.0955C14.4791 19.0955 14.8505 18.724 14.8505 18.2675C14.8505 17.9752 15.0875 17.7383 15.3798 17.7383C15.672 17.7383 15.909 17.9752 15.909 18.2675C15.9091 19.3077 15.0628 20.1539 14.0226 20.1539Z" fill="url(#paint10_linear_264_59)"/>
<path d="M21.9775 20.1539C20.9373 20.1539 20.0911 19.3077 20.0911 18.2675C20.0911 17.9752 20.328 17.7383 20.6203 17.7383C20.9126 17.7383 21.1495 17.9752 21.1495 18.2675C21.1495 18.7241 21.521 19.0955 21.9775 19.0955C22.434 19.0955 22.8055 18.724 22.8055 18.2675C22.8055 17.9752 23.0424 17.7383 23.3347 17.7383C23.627 17.7383 23.8639 17.9752 23.8639 18.2675C23.8639 19.3077 23.0177 20.1539 21.9775 20.1539Z" fill="url(#paint11_linear_264_59)"/>
<path d="M17.9999 25.8133C16.8325 25.8133 15.7017 25.2672 14.816 24.2754C14.6212 24.0575 14.6401 23.7229 14.8581 23.5282C15.076 23.3335 15.4106 23.3523 15.6053 23.5704C16.2975 24.3452 17.1255 24.7549 17.9999 24.7549C18.8743 24.7549 19.7023 24.3452 20.3945 23.5704C20.5892 23.3523 20.9238 23.3335 21.1417 23.5282C21.3597 23.7229 21.3786 24.0575 21.1838 24.2754C20.298 25.2672 19.1672 25.8133 17.9999 25.8133Z" fill="url(#paint12_linear_264_59)"/>
<path d="M26.2218 2.73499H9.77872C9.28737 2.73499 8.88904 3.13332 8.88904 3.62466V10.5022C8.88904 10.9936 9.28737 11.3919 9.77872 11.3919H26.2218C26.7131 11.3919 27.1115 10.9936 27.1115 10.5022V3.62473C27.1115 3.13332 26.7131 2.73499 26.2218 2.73499Z" fill="url(#paint13_linear_264_59)"/>
<path d="M27.1116 3.62493V10.5022C27.1116 10.9936 26.7132 11.392 26.2218 11.392H23.3978C23.8889 11.392 24.2876 10.9933 24.2876 10.5022V7.46054C24.2876 6.34844 23.3861 5.44691 22.274 5.44691H8.88904V3.62493C8.88904 3.13309 9.28773 2.73511 9.77886 2.73511H26.2218C26.7129 2.73511 27.1116 3.13309 27.1116 3.62493Z" fill="url(#paint14_linear_264_59)"/>
<path d="M7.58272 2.08591V6.72532C7.58272 7.2125 7.18784 7.60738 6.70066 7.60738C6.21348 7.60738 5.8186 7.2125 5.8186 6.72532V2.08591C5.8186 1.59874 6.21348 1.20386 6.70066 1.20386C7.18777 1.20386 7.58272 1.59874 7.58272 2.08591Z" fill="url(#paint15_linear_264_59)"/>
<path d="M5.46115 6.87617C5.84149 6.49583 6.36585 6.31172 6.91132 6.37488C7.22307 6.41094 7.52107 6.53301 7.76917 6.7253C8.61997 7.38466 8.67713 8.61898 7.9405 9.35553L7.27931 10.0167C6.95987 10.3362 6.44185 10.3362 6.12241 10.0167L5.46122 9.35553C4.77759 8.67197 4.77759 7.55973 5.46115 6.87617Z" fill="url(#paint16_linear_264_59)"/>
<path d="M7.76904 6.72536C7.67131 6.64965 7.56561 6.58522 7.45461 6.53223C7.53724 6.75062 7.58275 6.98716 7.58275 7.23448C7.58275 8.33126 6.69364 9.22038 5.59685 9.22038C5.50469 9.22038 5.41416 9.2136 5.32532 9.20139C5.36737 9.2546 5.4119 9.30646 5.46101 9.35558L6.1222 10.0168C6.44165 10.3362 6.95967 10.3362 7.27911 10.0168L7.9403 9.35558C8.677 8.61903 8.61984 7.38471 7.76904 6.72536Z" fill="url(#paint17_linear_264_59)"/>
<path d="M29.584 3.68234H6.41624C5.39941 3.68234 4.57507 2.85801 4.57507 1.84117C4.57507 0.824335 5.39941 0 6.41624 0H29.584C30.6008 0 31.4252 0.824335 31.4252 1.84117C31.4252 2.85801 30.6008 3.68234 29.584 3.68234Z" fill="url(#paint18_linear_264_59)"/>
<path d="M29.5841 0H26.7601C27.777 0 28.6013 0.824335 28.6013 1.84117C28.6013 2.85801 27.777 3.68234 26.7601 3.68234H29.5841C30.601 3.68234 31.4253 2.85801 31.4253 1.84117C31.4253 0.824335 30.601 0 29.5841 0Z" fill="url(#paint19_linear_264_59)"/>
</g>
<defs>
<linearGradient id="paint0_linear_264_59" x1="6.23299" y1="31.8014" x2="30.002" y2="31.8014" gradientUnits="userSpaceOnUse">
<stop stop-color="#537983"/>
<stop offset="1" stop-color="#3E5959"/>
</linearGradient>
<linearGradient id="paint1_linear_264_59" x1="5.33394" y1="31.8014" x2="28.8402" y2="31.8014" gradientUnits="userSpaceOnUse">
<stop stop-color="#537983"/>
<stop offset="1" stop-color="#384949"/>
</linearGradient>
<linearGradient id="paint2_linear_264_59" x1="14.9484" y1="30.6087" x2="21.0523" y2="30.6087" gradientUnits="userSpaceOnUse">
<stop stop-color="#FFDCBD"/>
<stop offset="0.0028" stop-color="#FFDCBD"/>
<stop offset="1" stop-color="#FFA9B1"/>
</linearGradient>
<linearGradient id="paint3_linear_264_59" x1="14.9485" y1="28.5142" x2="21.0523" y2="28.5142" gradientUnits="userSpaceOnUse">
<stop stop-color="#FFC2B5"/>
<stop offset="1" stop-color="#FF89A8"/>
</linearGradient>
<linearGradient id="paint4_linear_264_59" x1="8.88904" y1="17.7382" x2="27.1116" y2="17.7382" gradientUnits="userSpaceOnUse">
<stop stop-color="#FFDCBD"/>
<stop offset="0.0028" stop-color="#FFDCBD"/>
<stop offset="1" stop-color="#FFA9B1"/>
</linearGradient>
<linearGradient id="paint5_linear_264_59" x1="16.2828" y1="17.7382" x2="31.2382" y2="17.7382" gradientUnits="userSpaceOnUse">
<stop stop-color="#FFC2B5"/>
<stop offset="1" stop-color="#FF89A8"/>
</linearGradient>
<linearGradient id="paint6_linear_264_59" x1="6.82701" y1="13.3713" x2="18.3691" y2="13.3713" gradientUnits="userSpaceOnUse">
<stop stop-color="#FFE177"/>
<stop offset="0.5725" stop-color="#FEB137"/>
<stop offset="1" stop-color="#FE646F"/>
</linearGradient>
<linearGradient id="paint7_linear_264_59" x1="4.24007" y1="12.0898" x2="17.4357" y2="12.0898" gradientUnits="userSpaceOnUse">
<stop stop-color="#FFE177"/>
<stop offset="0.5725" stop-color="#FEB137"/>
<stop offset="1" stop-color="#FE646F"/>
</linearGradient>
<linearGradient id="paint8_linear_264_59" x1="12.5546" y1="13.3713" x2="29.3359" y2="13.3713" gradientUnits="userSpaceOnUse">
<stop stop-color="#FFE177"/>
<stop offset="0.5725" stop-color="#FEB137"/>
<stop offset="1" stop-color="#FE646F"/>
</linearGradient>
<linearGradient id="paint9_linear_264_59" x1="7.16856" y1="13.3712" x2="27.5333" y2="13.3712" gradientUnits="userSpaceOnUse">
<stop stop-color="#FFE177"/>
<stop offset="0.5725" stop-color="#FEB137"/>
<stop offset="1" stop-color="#FE646F"/>
</linearGradient>
<linearGradient id="paint10_linear_264_59" x1="10.238" y1="18.9461" x2="16.2364" y2="18.9461" gradientUnits="userSpaceOnUse">
<stop stop-color="#BFBFBF"/>
<stop offset="0.7584" stop-color="#5A5A5A"/>
<stop offset="1" stop-color="#444444"/>
</linearGradient>
<linearGradient id="paint11_linear_264_59" x1="18.2587" y1="18.9461" x2="24.0733" y2="18.9461" gradientUnits="userSpaceOnUse">
<stop stop-color="#BFBFBF"/>
<stop offset="0.7584" stop-color="#5A5A5A"/>
<stop offset="1" stop-color="#444444"/>
</linearGradient>
<linearGradient id="paint12_linear_264_59" x1="13.8366" y1="24.6035" x2="19.0217" y2="24.6035" gradientUnits="userSpaceOnUse">
<stop stop-color="#FFC2B5"/>
<stop offset="0.2441" stop-color="#FFBBB3"/>
<stop offset="0.6097" stop-color="#FFA6AF"/>
<stop offset="1" stop-color="#FF89A8"/>
</linearGradient>
<linearGradient id="paint13_linear_264_59" x1="9.54014" y1="7.06349" x2="26.7738" y2="7.06349" gradientUnits="userSpaceOnUse">
<stop stop-color="#537983"/>
<stop offset="1" stop-color="#3E5959"/>
</linearGradient>
<linearGradient id="paint14_linear_264_59" x1="5.43984" y1="7.06354" x2="31.786" y2="7.06354" gradientUnits="userSpaceOnUse">
<stop stop-color="#537983"/>
<stop offset="1" stop-color="#384949"/>
</linearGradient>
<linearGradient id="paint15_linear_264_59" x1="5.04112" y1="4.40565" x2="9.84614" y2="4.40565" gradientUnits="userSpaceOnUse">
<stop stop-color="#FFE177"/>
<stop offset="0.5725" stop-color="#FEB137"/>
<stop offset="1" stop-color="#FE646F"/>
</linearGradient>
<linearGradient id="paint16_linear_264_59" x1="4.66363" y1="8.30955" x2="8.88452" y2="8.30955" gradientUnits="userSpaceOnUse">
<stop stop-color="#FFE177"/>
<stop offset="0.5725" stop-color="#FEB137"/>
<stop offset="1" stop-color="#FE646F"/>
</linearGradient>
<linearGradient id="paint17_linear_264_59" x1="2.56094" y1="8.39435" x2="9.13842" y2="8.39435" gradientUnits="userSpaceOnUse">
<stop stop-color="#FFE177"/>
<stop offset="0.5725" stop-color="#FEB137"/>
<stop offset="1" stop-color="#FE646F"/>
</linearGradient>
<linearGradient id="paint18_linear_264_59" x1="6.30391" y1="1.84117" x2="29.8467" y2="1.84117" gradientUnits="userSpaceOnUse">
<stop stop-color="#537983"/>
<stop offset="1" stop-color="#3E5959"/>
</linearGradient>
<linearGradient id="paint19_linear_264_59" x1="16.8523" y1="1.84117" x2="31.339" y2="1.84117" gradientUnits="userSpaceOnUse">
<stop stop-color="#537983"/>
<stop offset="1" stop-color="#384949"/>
</linearGradient>
<clipPath id="clip0_264_59">
<rect width="36" height="36" fill="white"/>
</clipPath>
</defs>
</svg>
