<svg width="18" height="24" viewBox="0 0 18 24" fill="none" xmlns="http://www.w3.org/2000/svg">
<path fill-rule="evenodd" clip-rule="evenodd" d="M17.5052 17.88L16.0002 16.375V10.5417C16.0002 6.96 14.0868 3.96167 10.7502 3.16833V2.375C10.7502 1.40667 9.96852 0.625 9.00018 0.625C8.03185 0.625 7.25018 1.40667 7.25018 2.375V3.16833C3.90185 3.96167 2.00018 6.94833 2.00018 10.5417V16.375L0.495182 17.88C-0.239818 18.615 0.273515 19.875 1.31185 19.875H16.6768C17.7269 19.875 18.2402 18.615 17.5052 17.88ZM13.6668 17.5417H4.33351V10.5417C4.33351 7.64833 6.09517 5.29167 9.00017 5.29167C11.9052 5.29167 13.6668 7.64833 13.6668 10.5417V17.5417ZM11.3335 21.0417C11.3335 22.325 10.2835 23.375 9.00018 23.375C7.70517 23.375 6.66684 22.325 6.66684 21.0417H11.3335Z" fill="white"/>
</svg>
