<svg width="16" height="16" viewBox="0 0 16 16" fill="none" xmlns="http://www.w3.org/2000/svg">
<path fill-rule="evenodd" clip-rule="evenodd" d="M7.99325 1.33337C4.31325 1.33337 1.33325 4.32004 1.33325 8.00004C1.33325 11.68 4.31325 14.6667 7.99325 14.6667C11.6799 14.6667 14.6666 11.68 14.6666 8.00004C14.6666 4.32004 11.6799 1.33337 7.99325 1.33337ZM7.99993 13.3334C5.05326 13.3334 2.66659 10.9467 2.66659 8.00004C2.66659 5.05337 5.05326 2.6667 7.99993 2.6667C10.9466 2.6667 13.3333 5.05337 13.3333 8.00004C13.3333 10.9467 10.9466 13.3334 7.99993 13.3334ZM7.81325 4.6667H7.85325C8.11992 4.6667 8.33325 4.88004 8.33325 5.1467V8.17337L10.9133 9.7067C11.1466 9.84004 11.2199 10.14 11.0799 10.3667C10.9466 10.5934 10.6533 10.66 10.4266 10.5267L7.65992 8.8667C7.45325 8.7467 7.33325 8.5267 7.33325 8.29337V5.1467C7.33325 4.88004 7.54659 4.6667 7.81325 4.6667Z" fill="#BEC3C9"/>
</svg>
