<svg width="36" height="36" viewBox="0 0 36 36" fill="none" xmlns="http://www.w3.org/2000/svg">
<g clip-path="url(#clip0_264_60)">
<path opacity="0.8" d="M18 36C27.9411 36 36 27.9411 36 18C36 8.05888 27.9411 0 18 0C8.05888 0 0 8.05888 0 18C0 27.9411 8.05888 36 18 36Z" fill="url(#paint0_linear_264_60)"/>
<path d="M16.2346 30.6961C23.2465 30.6961 28.9307 25.0119 28.9307 18C28.9307 10.9882 23.2465 5.30396 16.2346 5.30396C9.2228 5.30396 3.53857 10.9882 3.53857 18C3.53857 25.0119 9.2228 30.6961 16.2346 30.6961Z" fill="url(#paint1_linear_264_60)"/>
<path d="M17.9999 0C17.5245 0 17.0535 0.0187765 16.5874 0.0549176C25.8683 0.775341 33.1749 8.53426 33.1749 18C33.1749 27.4657 25.8683 35.2247 16.5874 35.9451C17.0535 35.9812 17.5245 36 17.9999 36C27.941 36 35.9999 27.9412 35.9999 18C35.9999 8.05885 27.941 0 17.9999 0Z" fill="url(#paint2_linear_264_60)"/>
<path d="M18.0001 30.6961C25.012 30.6961 30.6962 25.0119 30.6962 18C30.6962 10.9882 25.012 5.30396 18.0001 5.30396C10.9883 5.30396 5.30408 10.9882 5.30408 18C5.30408 25.0119 10.9883 30.6961 18.0001 30.6961Z" fill="url(#paint3_linear_264_60)"/>
<path d="M18.9126 7.03269L17.4547 5.31852C17.0371 4.82758 16.2791 4.82758 15.8615 5.31852L13.6166 7.95803C13.3083 8.32043 13.5659 8.87765 14.0417 8.87765H15.2564V17.5577C14.5269 18.0218 14.0424 18.8368 14.0424 19.7655C14.0424 19.9615 14.0647 20.1522 14.1055 20.3358L11.5346 22.9067L10.6757 22.0477C10.3392 21.7113 9.76308 21.9231 9.72483 22.3974L9.44586 25.8512C9.39398 26.4937 9.92995 27.0297 10.5724 26.9778L14.0262 26.6989C14.5004 26.6605 14.7123 26.0845 14.3759 25.748L13.5169 24.889L16.0878 22.3181C16.3797 22.383 16.6893 22.4009 17.0097 22.3572C18.2417 22.1892 19.2003 21.1563 19.2694 19.9148C19.3244 18.9247 18.828 18.0466 18.0598 17.5578V8.87765C19.0143 8.87765 19.531 7.75975 18.9126 7.03269Z" fill="url(#paint4_linear_264_60)"/>
<path d="M28.9304 18C28.9304 24.7151 23.717 30.2117 17.1171 30.665C17.4088 30.6851 17.703 30.6961 17.9998 30.6961C25.0116 30.6961 30.6959 25.0118 30.6959 18C30.6959 10.9882 25.0116 5.30396 17.9998 5.30396C17.703 5.30396 17.4088 5.31497 17.1171 5.33501C23.717 5.7884 28.9304 11.285 28.9304 18Z" fill="url(#paint5_linear_264_60)"/>
<path d="M17.9999 5.85291C17.6095 5.85291 17.293 6.16942 17.293 6.55985V7.87025C17.293 8.26067 17.6095 8.57719 17.9999 8.57719C18.3903 8.57719 18.7069 8.26067 18.7069 7.87025V6.55985C18.7069 6.16942 18.3903 5.85291 17.9999 5.85291Z" fill="#E8626C"/>
<path d="M17.9999 27.4227C17.6095 27.4227 17.293 27.7392 17.293 28.1297V29.4401C17.293 29.8305 17.6095 30.147 17.9999 30.147C18.3903 30.147 18.7069 29.8305 18.7069 29.4401V28.1297C18.7069 27.7392 18.3903 27.4227 17.9999 27.4227Z" fill="#E8626C"/>
<path d="M29.4402 17.293H28.1298C27.7394 17.293 27.4229 17.6095 27.4229 17.9999C27.4229 18.3903 27.7394 18.7068 28.1298 18.7068H29.4402C29.8306 18.7068 30.1471 18.3903 30.1471 17.9999C30.1471 17.6095 29.8306 17.293 29.4402 17.293Z" fill="#E8626C"/>
<path d="M8.57719 17.9999C8.57719 17.6095 8.26067 17.293 7.87025 17.293H6.55985C6.16942 17.293 5.85291 17.6095 5.85291 17.9999C5.85291 18.3903 6.16942 18.7068 6.55985 18.7068H7.87025C8.26067 18.7068 8.57719 18.3903 8.57719 17.9999Z" fill="#E8626C"/>
<path d="M24.0782 7.48305C23.7401 7.28767 23.3077 7.40336 23.1124 7.74141L22.4567 8.87598C22.2613 9.21396 22.377 9.64638 22.7149 9.84177C23.053 10.0372 23.4854 9.92147 23.6807 9.58342L24.3364 8.44885C24.5318 8.1108 24.4162 7.67837 24.0782 7.48305Z" fill="#E8626C"/>
<path d="M13.2849 26.1583C12.9469 25.963 12.5145 26.0787 12.3191 26.4167L11.6634 27.5513C11.4681 27.8893 11.5837 28.3217 11.9218 28.5171C12.2598 28.7124 12.6923 28.5967 12.8876 28.2587L13.5433 27.1241C13.7386 26.7861 13.623 26.3537 13.2849 26.1583Z" fill="#E8626C"/>
<path d="M28.2587 23.1122L27.1241 22.4565C26.7862 22.2612 26.3537 22.3768 26.1583 22.7149C25.963 23.0529 26.0787 23.4854 26.4167 23.6807L27.5513 24.3364C27.8892 24.5317 28.3217 24.4161 28.517 24.078C28.7124 23.74 28.5967 23.3075 28.2587 23.1122Z" fill="#E8626C"/>
<path d="M9.58341 12.3191L8.44884 11.6634C8.11087 11.4681 7.67844 11.5837 7.48305 11.9218C7.28767 12.2598 7.40336 12.6922 7.74141 12.8876L8.87597 13.5433C9.21395 13.7386 9.64637 13.623 9.84176 13.2849C10.0371 12.9469 9.92138 12.5145 9.58341 12.3191Z" fill="#E8626C"/>
<path d="M8.8758 22.4565L7.74124 23.1122C7.40326 23.3075 7.28757 23.74 7.48289 24.078C7.6782 24.4161 8.11063 24.5317 8.44867 24.3364L9.58324 23.6807C9.92121 23.4854 10.0369 23.0529 9.84159 22.7149C9.64627 22.3768 9.21385 22.2612 8.8758 22.4565Z" fill="#E8626C"/>
<path d="M27.124 13.5433L28.2585 12.8876C28.5966 12.6923 28.7122 12.2598 28.5169 11.9218C28.3215 11.5837 27.8891 11.4681 27.5511 11.6634L26.4165 12.3191C26.0786 12.5145 25.9629 12.9469 26.1582 13.2849C26.3535 13.623 26.7859 13.7386 27.124 13.5433Z" fill="#E8626C"/>
<path d="M23.6808 26.4165C23.4854 26.0786 23.053 25.9629 22.715 26.1582C22.3769 26.3536 22.2613 26.786 22.4567 27.124L23.1124 28.2585C23.3077 28.5965 23.7401 28.7122 24.0782 28.5169C24.4162 28.3215 24.5319 27.8891 24.3365 27.5511L23.6808 26.4165Z" fill="#E8626C"/>
<path d="M12.8875 7.74124C12.6921 7.40326 12.2597 7.28757 11.9217 7.48289C11.5836 7.6782 11.468 8.11063 11.6633 8.44867L12.319 9.58324C12.5143 9.92121 12.9468 10.0369 13.2848 9.84159C13.6228 9.64627 13.7385 9.21378 13.5432 8.8758L12.8875 7.74124Z" fill="#E8626C"/>
<path d="M20.6163 7.11227H19.4016V17.9996H16.5983V7.11227H15.3836C14.9078 7.11227 14.6502 6.55505 14.9585 6.19265L17.2034 3.55314C17.621 3.0622 18.379 3.0622 18.7966 3.55314L21.0415 6.19265C21.3497 6.55505 21.0921 7.11227 20.6163 7.11227Z" fill="#FE9E45"/>
<path d="M12.0176 20.2822L12.8766 21.1412L17.0086 17.0093L18.9908 18.9915L14.8588 23.1235L15.7178 23.9825C16.0542 24.3189 15.8423 24.895 15.3681 24.9333L11.9143 25.2123C11.2719 25.2641 10.7358 24.7282 10.7878 24.0857L11.0668 20.6319C11.1051 20.1577 11.6812 19.9458 12.0176 20.2822Z" fill="#FE9E45"/>
<path d="M17.9997 20.6154C19.4442 20.6154 20.6152 19.4444 20.6152 17.9999C20.6152 16.5554 19.4442 15.3844 17.9997 15.3844C16.5552 15.3844 15.3842 16.5554 15.3842 17.9999C15.3842 19.4444 16.5552 20.6154 17.9997 20.6154Z" fill="url(#paint6_linear_264_60)"/>
<path d="M20.6153 17.9999C20.6153 19.4442 19.4442 20.6152 17.9993 20.6152C17.1042 20.6152 16.3143 20.1656 15.8435 19.4802C15.9501 19.4915 16.0588 19.4971 16.1682 19.4971C17.8482 19.4971 19.2106 18.1348 19.2106 16.4548C19.2106 16.1668 19.1703 15.8879 19.0955 15.6246C19.9927 16.039 20.6153 16.9468 20.6153 17.9999Z" fill="url(#paint7_linear_264_60)"/>
<path d="M29.4401 17.2935H28.9114C28.9241 17.5271 28.9304 17.7629 28.9304 18C28.9304 18.2372 28.9241 18.473 28.9114 18.7066H29.4401C29.8304 18.7066 30.1467 18.3904 30.1467 18C30.1467 17.6097 29.8304 17.2935 29.4401 17.2935Z" fill="#E8626C"/>
<path d="M24.0783 7.48304C23.8467 7.34963 23.5715 7.36093 23.3583 7.49081C23.7218 7.73646 24.0712 8.00116 24.4058 8.28281C24.4898 7.97998 24.3627 7.64751 24.0783 7.48304Z" fill="#E8626C"/>
<path d="M28.2586 23.1119L27.9389 22.927C27.7546 23.3646 27.5464 23.7896 27.3163 24.2004L27.5513 24.3366C27.8895 24.5315 28.3215 24.4164 28.517 24.0783C28.7125 23.7402 28.5968 23.3075 28.2586 23.1119Z" fill="#E8626C"/>
<path d="M27.5513 11.6632L27.3163 11.7995C27.5464 12.2103 27.7546 12.6352 27.9389 13.0729L28.2586 12.8879C28.5968 12.6924 28.7125 12.2597 28.517 11.9216C28.3215 11.5835 27.8895 11.4684 27.5513 11.6632Z" fill="#E8626C"/>
<path d="M23.3583 28.5092C23.5715 28.639 23.8467 28.6503 24.0783 28.5169C24.3627 28.3525 24.4898 28.02 24.4058 27.7172C24.0712 27.9988 23.7218 28.2635 23.3583 28.5092Z" fill="#E8626C"/>
</g>
<defs>
<linearGradient id="paint0_linear_264_60" x1="1.14724" y1="18" x2="35.7506" y2="18" gradientUnits="userSpaceOnUse">
<stop stop-color="#387181"/>
<stop offset="1" stop-color="#437D7D"/>
</linearGradient>
<linearGradient id="paint1_linear_264_60" x1="4.34776" y1="18" x2="28.7548" y2="18" gradientUnits="userSpaceOnUse">
<stop stop-color="#537983"/>
<stop offset="1" stop-color="#3E5959"/>
</linearGradient>
<linearGradient id="paint2_linear_264_60" x1="17.206" y1="18" x2="35.8654" y2="18" gradientUnits="userSpaceOnUse">
<stop stop-color="#537983"/>
<stop offset="1" stop-color="#3E5959"/>
</linearGradient>
<linearGradient id="paint3_linear_264_60" x1="4.70662" y1="18" x2="30.4045" y2="18" gradientUnits="userSpaceOnUse">
<stop stop-color="white"/>
<stop offset="1" stop-color="#F9F3F1"/>
</linearGradient>
<linearGradient id="paint4_linear_264_60" x1="3.78453" y1="15.9658" x2="19.496" y2="15.9658" gradientUnits="userSpaceOnUse">
<stop stop-color="#F9F3F1"/>
<stop offset="0.5725" stop-color="#EFE2DD"/>
<stop offset="1" stop-color="#CDBFBA"/>
</linearGradient>
<linearGradient id="paint5_linear_264_60" x1="36.1375" y1="18" x2="23.6435" y2="18" gradientUnits="userSpaceOnUse">
<stop stop-color="#F9F3F1"/>
<stop offset="1" stop-color="#EFE2DD"/>
</linearGradient>
<linearGradient id="paint6_linear_264_60" x1="15.5959" y1="17.9999" x2="21.0537" y2="17.9999" gradientUnits="userSpaceOnUse">
<stop stop-color="#FE646F"/>
<stop offset="0.5725" stop-color="#FB2B3A"/>
<stop offset="1" stop-color="#C41926"/>
</linearGradient>
<linearGradient id="paint7_linear_264_60" x1="13.3369" y1="18.1199" x2="20.8419" y2="18.1199" gradientUnits="userSpaceOnUse">
<stop stop-color="#FE646F"/>
<stop offset="0.5725" stop-color="#FB2B3A"/>
<stop offset="1" stop-color="#C41926"/>
</linearGradient>
<clipPath id="clip0_264_60">
<rect width="36" height="36" fill="white"/>
</clipPath>
</defs>
</svg>
