<svg width="28" height="28" viewBox="0 0 28 28" fill="none" xmlns="http://www.w3.org/2000/svg">
<path fill-rule="evenodd" clip-rule="evenodd" d="M22.5052 19.88L21.0002 18.375V12.5417C21.0002 8.96 19.0868 5.96167 15.7502 5.16833V4.375C15.7502 3.40667 14.9685 2.625 14.0002 2.625C13.0318 2.625 12.2502 3.40667 12.2502 4.375V5.16833C8.90185 5.96167 7.00018 8.94833 7.00018 12.5417V18.375L5.49518 19.88C4.76018 20.615 5.27352 21.875 6.31185 21.875H21.6768C22.7269 21.875 23.2402 20.615 22.5052 19.88ZM18.6668 19.5417H9.33351V12.5417C9.33351 9.64833 11.0952 7.29167 14.0002 7.29167C16.9052 7.29167 18.6668 9.64833 18.6668 12.5417V19.5417ZM16.3335 23.0417C16.3335 24.325 15.2835 25.375 14.0002 25.375C12.7052 25.375 11.6668 24.325 11.6668 23.0417H16.3335Z" fill="white"/>
<rect x="21" width="7" height="7" rx="3.5" fill="#F76288"/>
</svg>
